<svg width="24" height="24" viewBox="0 0 24 24" fill="none" xmlns="http://www.w3.org/2000/svg">
  <path d="M22.56 12.25C22.56 11.47 22.49 10.72 22.36 10H12V14.255H17.92C17.665 15.63 16.89 16.795 15.725 17.575V20.335H19.28C21.36 18.42 22.56 15.6 22.56 12.25Z" fill="#4285F4"/>
  <path d="M12 23C14.97 23 17.46 22.015 19.28 20.335L15.725 17.575C14.74 18.235 13.48 18.625 12 18.625C9.235 18.625 6.875 16.73 6.025 14.18H2.36V17.03C4.17 20.64 7.88 23 12 23Z" fill="#34A853"/>
  <path d="M6.025 14.18C5.805 13.53 5.68 12.835 5.68 12.125C5.68 11.415 5.805 10.72 6.025 10.07V7.22H2.36C1.545 8.66 1.08 10.32 1.08 12.125C1.08 13.93 1.545 15.59 2.36 17.03L6.025 14.18Z" fill="#FBBC05"/>
  <path d="M12 5.625C13.615 5.625 15.065 6.195 16.185 7.26L19.32 4.125C17.455 2.395 14.965 1.25 12 1.25C7.88 1.25 4.17 3.61 2.36 7.22L6.025 10.07C6.875 7.52 9.235 5.625 12 5.625Z" fill="#EA4335"/>
</svg>